<mxfile host="app.diagrams.net" modified="2020-04-04T15:48:17.921Z" agent="5.0 (Windows NT 10.0; WOW64) AppleWebKit/537.36 (KHTML, like Gecko) Chrome/70.0.3538.25 Safari/537.36 Core/1.70.3708.400 QQBrowser/10.4.3661.400" etag="p9I7YISFm9K7oU0iq5Lq" version="12.9.7" type="github">
  <diagram id="1PvQDb9WBPG7mjZRJ01Q" name="第 1 页">
    <mxGraphModel dx="2022" dy="1101" grid="1" gridSize="10" guides="1" tooltips="1" connect="1" arrows="1" fold="1" page="1" pageScale="1" pageWidth="827" pageHeight="1169" math="0" shadow="0">
      <root>
        <mxCell id="0" />
        <mxCell id="1" parent="0" />
        <mxCell id="uZV1TFMeBzotM4ikVLCO-3" style="edgeStyle=orthogonalEdgeStyle;rounded=0;orthogonalLoop=1;jettySize=auto;html=1;exitX=1;exitY=0.5;exitDx=0;exitDy=0;" edge="1" parent="1" source="uZV1TFMeBzotM4ikVLCO-1" target="uZV1TFMeBzotM4ikVLCO-2">
          <mxGeometry relative="1" as="geometry" />
        </mxCell>
        <mxCell id="uZV1TFMeBzotM4ikVLCO-4" value="包含" style="text;html=1;align=center;verticalAlign=middle;resizable=0;points=[];" vertex="1" connectable="0" parent="uZV1TFMeBzotM4ikVLCO-3">
          <mxGeometry x="0.1689" relative="1" as="geometry">
            <mxPoint as="offset" />
          </mxGeometry>
        </mxCell>
        <mxCell id="uZV1TFMeBzotM4ikVLCO-1" value="商品" style="rounded=0;whiteSpace=wrap;html=1;" vertex="1" parent="1">
          <mxGeometry x="160" y="200" width="120" height="60" as="geometry" />
        </mxCell>
        <mxCell id="uZV1TFMeBzotM4ikVLCO-2" value="商品属性" style="ellipse;whiteSpace=wrap;html=1;" vertex="1" parent="1">
          <mxGeometry x="430" y="190" width="120" height="80" as="geometry" />
        </mxCell>
      </root>
    </mxGraphModel>
  </diagram>
</mxfile>
